<svg width="102" height="102" viewBox="0 0 102 102" fill="none" xmlns="http://www.w3.org/2000/svg">
<path d="M51.5777 9.56244C28.2731 9.24768 9.24768 28.2731 9.56244 51.5777C9.87323 73.928 28.0719 92.1267 50.4222 92.4374C73.7308 92.7562 92.7522 73.7308 92.4335 50.4262C92.1267 28.0719 73.928 9.87323 51.5777 9.56244ZM48.2328 47.9061L58.5025 36.1522C59.0589 35.5155 59.8454 35.1259 60.689 35.0691C61.5326 35.0123 62.3642 35.293 63.0009 35.8494C63.6376 36.4057 64.0271 37.1922 64.0839 38.0358C64.1407 38.8794 63.8601 39.711 63.3037 40.3477L53.034 52.1016C52.7585 52.4169 52.4236 52.6748 52.0485 52.8606C51.6733 53.0464 51.2652 53.1566 50.8475 53.1847C50.4298 53.2128 50.0106 53.1584 49.614 53.0245C49.2173 52.8906 48.8509 52.6799 48.5356 52.4044C48.2204 52.129 47.9625 51.7941 47.7766 51.4189C47.5908 51.0438 47.4807 50.6357 47.4526 50.218C47.4244 49.8003 47.4789 49.3811 47.6127 48.9844C47.7466 48.5878 47.9573 48.2213 48.2328 47.9061ZM40.4912 66.0051C39.8934 66.6024 39.083 66.938 38.238 66.938C37.393 66.938 36.5825 66.6024 35.9848 66.0051L26.4323 56.4426C26.1364 56.1465 25.9017 55.7949 25.7417 55.4081C25.5817 55.0212 25.4994 54.6067 25.4996 54.188C25.4998 53.7694 25.5824 53.3549 25.7428 52.9682C25.9032 52.5815 26.1381 52.2302 26.4343 51.9343C26.7304 51.6384 27.082 51.4037 27.4688 51.2437C27.8556 51.0837 28.2702 51.0014 28.6889 51.0016C29.1075 51.0018 29.522 51.0844 29.9087 51.2448C30.2954 51.4052 30.6467 51.6401 30.9426 51.9363L40.5051 61.4988C41.1006 62.0983 41.4336 62.9098 41.431 63.7548C41.4284 64.5998 41.0903 65.4092 40.4912 66.0051ZM75.713 40.3477L53.4244 65.8477C53.1373 66.1768 52.7856 66.4433 52.3911 66.6307C51.9967 66.8182 51.5679 66.9226 51.1314 66.9374H51.0239C50.605 66.9375 50.1902 66.855 49.8033 66.6947C49.4163 66.5344 49.0648 66.2994 48.7687 66.0031L39.2182 56.4406C38.6206 55.8425 38.2851 55.0315 38.2854 54.186C38.2858 53.3406 38.622 52.5299 39.2201 51.9323C39.8182 51.3347 40.6292 50.9992 41.4747 50.9996C42.3202 51 43.1309 51.3362 43.7285 51.9343L49.6652 57.877C49.8195 58.0313 50.0039 58.1524 50.2069 58.2326C50.41 58.3127 50.6273 58.3503 50.8455 58.343C51.0636 58.3358 51.278 58.2837 51.4752 58.1902C51.6725 58.0967 51.8484 57.9636 51.9921 57.7993L70.9178 36.1522C71.4742 35.5155 72.2607 35.1259 73.1043 35.0691C73.9479 35.0123 74.7795 35.293 75.4162 35.8494C76.0529 36.4057 76.4425 37.1922 76.4992 38.0358C76.556 38.8794 76.2754 39.711 75.719 40.3477H75.713Z" fill="#4CAF50"/>
</svg>
