<svg width="115" height="115" viewBox="0 0 115 115" fill="none" xmlns="http://www.w3.org/2000/svg">
<path d="M19.1667 91.0417V23.9583C19.1667 21.4167 20.1764 18.9791 21.9736 17.1819C23.7709 15.3847 26.2084 14.375 28.7501 14.375H92.9584C93.7209 14.375 94.4522 14.6779 94.9914 15.2171C95.5305 15.7562 95.8334 16.4875 95.8334 17.25V80.0879" stroke="#536BE8" stroke-width="5" stroke-linecap="round"/>
<path d="M76.6668 42.0708C76.6663 44.954 75.5261 47.7202 73.4947 49.7662C68.8181 54.4812 64.2804 59.3975 59.4264 63.94C58.8845 64.4337 58.1737 64.7005 57.4408 64.6853C56.7078 64.6702 56.0087 64.3742 55.4876 63.8585L41.5056 49.771C39.4731 47.7236 38.3325 44.9557 38.3325 42.0708C38.3325 39.1859 39.4731 36.418 41.5056 34.3706C42.5197 33.3489 43.7261 32.5381 45.055 31.9847C46.384 31.4314 47.8093 31.1465 49.2489 31.1465C50.6885 31.1465 52.1138 31.4314 53.4428 31.9847C54.7717 32.5381 55.9781 33.3489 56.9922 34.3706L57.5001 34.8833L58.0081 34.3706C59.5304 32.8318 61.4761 31.7809 63.5977 31.3515C65.7192 30.9221 67.9205 31.1338 69.9214 31.9595C71.9222 32.7852 73.6321 34.1877 74.8333 35.9883C76.0346 37.7889 76.6728 39.9063 76.6668 42.0708Z" fill="#FF4747"/>
<path d="M28.75 81.4583H95.8333M28.75 100.625H95.8333" stroke="#536BE8" stroke-width="5" stroke-linecap="round"/>
<path d="M28.7501 100.625C26.2084 100.625 23.7709 99.6152 21.9736 97.818C20.1764 96.0208 19.1667 93.5832 19.1667 91.0416C19.1667 88.4999 20.1764 86.0624 21.9736 84.2651C23.7709 82.4679 26.2084 81.4583 28.7501 81.4583" stroke="#536BE8" stroke-width="5" stroke-linecap="round" stroke-linejoin="round"/>
</svg>
