<svg width="27" height="18" viewBox="0 0 27 18" fill="none" xmlns="http://www.w3.org/2000/svg">
<g clip-path="url(#clip0_3_1703)">
<path d="M8.73047 9.11719C8.73047 9.40625 8.63086 9.64648 8.43164 9.83789C8.23242 10.0293 7.98828 10.125 7.69922 10.125C7.47266 10.125 7.29102 10.0625 7.1543 9.9375C7.01758 9.8125 6.94922 9.64062 6.94922 9.42188C6.94922 9.13281 7.04688 8.88867 7.24219 8.68945C7.4375 8.49023 7.67969 8.39062 7.96875 8.39062C8.1875 8.39062 8.36914 8.45508 8.51367 8.58398C8.6582 8.71289 8.73047 8.89062 8.73047 9.11719ZM17.9297 7.37109C17.9297 7.69922 17.8438 7.92188 17.6719 8.03906C17.5 8.15625 17.2422 8.21484 16.8984 8.21484L16.5234 8.22656L16.7227 6.97266C16.7383 6.88672 16.7891 6.84375 16.875 6.84375H17.0859C17.2578 6.84375 17.3945 6.85156 17.4961 6.86719C17.5977 6.88281 17.6953 6.93164 17.7891 7.01367C17.8828 7.0957 17.9297 7.21484 17.9297 7.37109ZM22.043 9.11719C22.043 9.39844 21.9434 9.63672 21.7441 9.83203C21.5449 10.0273 21.3047 10.125 21.0234 10.125C20.7969 10.125 20.6133 10.0625 20.4727 9.9375C20.332 9.8125 20.2617 9.64062 20.2617 9.42188C20.2617 9.13281 20.3594 8.88867 20.5547 8.68945C20.75 8.49023 20.9922 8.39062 21.2812 8.39062C21.5 8.39062 21.6816 8.45508 21.8262 8.58398C21.9707 8.71289 22.043 8.89062 22.043 9.11719ZM6.01172 7.11328C6.01172 6.65234 5.86133 6.31836 5.56055 6.11133C5.25977 5.9043 4.86719 5.80078 4.38281 5.80078H2.50781C2.35938 5.80078 2.27734 5.875 2.26172 6.02344L1.5 10.8047C1.49219 10.8516 1.50391 10.8945 1.53516 10.9336C1.56641 10.9727 1.60547 10.9922 1.65234 10.9922H2.54297C2.69922 10.9922 2.78516 10.918 2.80078 10.7695L3.01172 9.48047C3.01953 9.41797 3.04688 9.36719 3.09375 9.32812C3.14062 9.28906 3.19922 9.26367 3.26953 9.25195C3.33984 9.24023 3.40625 9.23438 3.46875 9.23438C3.53125 9.23438 3.60547 9.23828 3.69141 9.24609C3.77734 9.25391 3.83203 9.25781 3.85547 9.25781C4.52734 9.25781 5.05469 9.06836 5.4375 8.68945C5.82031 8.31055 6.01172 7.78516 6.01172 7.11328ZM9.63281 10.7695L10.1133 7.71094C10.1211 7.66406 10.1094 7.62109 10.0781 7.58203C10.0469 7.54297 10.0078 7.52344 9.96094 7.52344H9.07031C8.96094 7.52344 8.89453 7.65234 8.87109 7.91016C8.66016 7.59766 8.28906 7.44141 7.75781 7.44141C7.19531 7.44141 6.7168 7.65234 6.32227 8.07422C5.92773 8.49609 5.73047 8.99219 5.73047 9.5625C5.73047 10.0234 5.86523 10.3906 6.13477 10.6641C6.4043 10.9375 6.76562 11.0742 7.21875 11.0742C7.4375 11.0742 7.66406 11.0273 7.89844 10.9336C8.13281 10.8398 8.32031 10.7148 8.46094 10.5586C8.42969 10.6523 8.41406 10.7344 8.41406 10.8047C8.41406 10.9297 8.46484 10.9922 8.56641 10.9922H9.375C9.52344 10.9922 9.60938 10.918 9.63281 10.7695ZM14.8711 7.6875C14.8711 7.64844 14.8555 7.61133 14.8242 7.57617C14.793 7.54102 14.7578 7.52344 14.7188 7.52344H13.8164C13.7305 7.52344 13.6602 7.5625 13.6055 7.64062L12.3633 9.46875L11.8477 7.71094C11.8086 7.58594 11.7227 7.52344 11.5898 7.52344H10.7109C10.6719 7.52344 10.6367 7.54102 10.6055 7.57617C10.5742 7.61133 10.5586 7.64844 10.5586 7.6875C10.5586 7.70312 10.6348 7.93359 10.7871 8.37891C10.9395 8.82422 11.1035 9.30469 11.2793 9.82031C11.4551 10.3359 11.5469 10.6094 11.5547 10.6406C10.9141 11.5156 10.5938 11.9844 10.5938 12.0469C10.5938 12.1484 10.6445 12.1992 10.7461 12.1992H11.6484C11.7344 12.1992 11.8047 12.1602 11.8594 12.082L14.8477 7.76953C14.8633 7.75391 14.8711 7.72656 14.8711 7.6875ZM19.3242 7.11328C19.3242 6.65234 19.1738 6.31836 18.873 6.11133C18.5723 5.9043 18.1797 5.80078 17.6953 5.80078H15.832C15.6758 5.80078 15.5898 5.875 15.5742 6.02344L14.8125 10.8047C14.8047 10.8516 14.8164 10.8945 14.8477 10.9336C14.8789 10.9727 14.918 10.9922 14.9648 10.9922H15.9258C16.0195 10.9922 16.082 10.9414 16.1133 10.8398L16.3242 9.48047C16.332 9.41797 16.3594 9.36719 16.4062 9.32812C16.4531 9.28906 16.5117 9.26367 16.582 9.25195C16.6523 9.24023 16.7188 9.23438 16.7812 9.23438C16.8438 9.23438 16.918 9.23828 17.0039 9.24609C17.0898 9.25391 17.1445 9.25781 17.168 9.25781C17.8398 9.25781 18.3672 9.06836 18.75 8.68945C19.1328 8.31055 19.3242 7.78516 19.3242 7.11328ZM22.9453 10.7695L23.4258 7.71094C23.4336 7.66406 23.4219 7.62109 23.3906 7.58203C23.3594 7.54297 23.3203 7.52344 23.2734 7.52344H22.3828C22.2734 7.52344 22.207 7.65234 22.1836 7.91016C21.9805 7.59766 21.6094 7.44141 21.0703 7.44141C20.5078 7.44141 20.0293 7.65234 19.6348 8.07422C19.2402 8.49609 19.043 8.99219 19.043 9.5625C19.043 10.0234 19.1777 10.3906 19.4473 10.6641C19.7168 10.9375 20.0781 11.0742 20.5312 11.0742C20.7578 11.0742 20.9883 11.0273 21.2227 10.9336C21.457 10.8398 21.6406 10.7148 21.7734 10.5586C21.7734 10.5664 21.7656 10.6016 21.75 10.6641C21.7344 10.7266 21.7266 10.7734 21.7266 10.8047C21.7266 10.9297 21.7773 10.9922 21.8789 10.9922H22.6875C22.8359 10.9922 22.9219 10.918 22.9453 10.7695ZM25.5 5.97656V5.96484C25.5 5.85547 25.4492 5.80078 25.3477 5.80078H24.4805C24.3945 5.80078 24.3438 5.84375 24.3281 5.92969L23.5664 10.8047L23.5547 10.8281C23.5547 10.8672 23.5703 10.9043 23.6016 10.9395C23.6328 10.9746 23.6719 10.9922 23.7188 10.9922H24.4922C24.6406 10.9922 24.7227 10.918 24.7383 10.7695L25.5 5.97656ZM4.59375 7.54688C4.55469 7.82031 4.45312 8 4.28906 8.08594C4.125 8.17188 3.89062 8.21484 3.58594 8.21484L3.19922 8.22656L3.39844 6.97266C3.41406 6.88672 3.46484 6.84375 3.55078 6.84375H3.77344C4.08594 6.84375 4.3125 6.88867 4.45312 6.97852C4.59375 7.06836 4.64062 7.25781 4.59375 7.54688ZM27 1.5V16.5C27 16.9062 26.8516 17.2578 26.5547 17.5547C26.2578 17.8516 25.9062 18 25.5 18H1.5C1.09375 18 0.742188 17.8516 0.445312 17.5547C0.148438 17.2578 0 16.9062 0 16.5V1.5C0 1.09375 0.148438 0.742188 0.445312 0.445312C0.742188 0.148438 1.09375 0 1.5 0H25.5C25.9062 0 26.2578 0.148438 26.5547 0.445312C26.8516 0.742188 27 1.09375 27 1.5Z" fill="black"/>
</g>
<defs>
<clipPath id="clip0_3_1703">
<rect width="27" height="18" fill="white"/>
</clipPath>
</defs>
</svg>
