<svg width="41" height="41" viewBox="0 0 41 41" fill="none" xmlns="http://www.w3.org/2000/svg">
<path d="M22.1811 25.625C22.1811 25.996 22.3019 26.3569 22.5251 26.6531C22.7483 26.9494 23.0619 27.1649 23.4185 27.2672C23.7751 27.3694 24.1552 27.3529 24.5016 27.22C24.8479 27.087 25.1415 26.845 25.3381 26.5305L29.9301 21.9402C30.0887 21.7814 30.2145 21.593 30.3003 21.3857C30.3861 21.1784 30.4302 20.9562 30.4302 20.7318C30.4301 20.5074 30.3858 20.2852 30.2999 20.0779C30.2139 19.8707 30.088 19.6823 29.9293 19.5237C29.7705 19.3651 29.5821 19.2393 29.3748 19.1535C29.1675 19.0677 28.9453 19.0236 28.7209 19.0237C28.4965 19.0238 28.2743 19.068 28.067 19.154C27.8598 19.2399 27.6714 19.3659 27.5128 19.5246L25.5995 21.4379V8.54171C25.5995 8.08863 25.4195 7.65411 25.0991 7.33373C24.7788 7.01336 24.3442 6.83337 23.8912 6.83337C23.4381 6.83337 23.0036 7.01336 22.6832 7.33373C22.3628 7.65411 22.1828 8.08863 22.1828 8.54171V25.625H22.1811ZM18.8191 15.375C18.8191 15.0041 18.6984 14.6432 18.4751 14.347C18.2519 14.0507 17.9383 13.8352 17.5817 13.7329C17.2252 13.6306 16.845 13.6472 16.4987 13.7801C16.1524 13.913 15.8587 14.1551 15.6621 14.4696L11.0718 19.0599C10.9087 19.2175 10.7785 19.406 10.689 19.6144C10.5995 19.8229 10.5523 20.047 10.5504 20.2739C10.5484 20.5007 10.5916 20.7256 10.6775 20.9356C10.7634 21.1455 10.8903 21.3363 11.0507 21.4967C11.2111 21.6571 11.4018 21.7839 11.6117 21.8698C11.8217 21.9557 12.0466 21.9989 12.2735 21.997C12.5003 21.995 12.7245 21.9479 12.9329 21.8583C13.1413 21.7688 13.3298 21.6387 13.4874 21.4755L15.4025 19.5622V32.4584C15.4025 32.9115 15.5824 33.346 15.9028 33.6663C16.2232 33.9867 16.6577 34.1667 17.1108 34.1667C17.5639 34.1667 17.9984 33.9867 18.3188 33.6663C18.6391 33.346 18.8191 32.9115 18.8191 32.4584V15.375Z" fill="black"/>
</svg>
